<svg xmlns="http://www.w3.org/2000/svg" viewBox="0 0 120 120" width="120" height="120">
<defs><linearGradient id="g" gradientUnits="userSpaceOnUse" x1="14" y1="46" x2="106" y2="74"><stop offset="0" stop-color="#ec4a10"/><stop offset="0.12" stop-color="#e40f14"/><stop offset="1" stop-color="#45258d"/></linearGradient></defs>
<rect x="25" y="25" width="70" height="70" rx="15" fill="url(#g)" transform="rotate(45 60 60)"/>
<g fill="none" stroke="#fff" stroke-width="2.1" stroke-linecap="round" stroke-linejoin="round" transform="translate(60 60) scale(1) translate(-59 -62)">

<path pathLength="1" stroke-dasharray="1 2" stroke-dashoffset="1" d="M34 64v18M34 68h8l12 4h8a3 3 0 0 1 0 6H52M34 80l20 3 26-11a3 3 0 0 0-3-5l-15 6"><animate attributeName="stroke-dashoffset" values="1;1;0;0" keyTimes="0;0;0.4;1" dur="1.5s" fill="freeze"/></path>
<path pathLength="1" stroke-dasharray="1 2" stroke-dashoffset="1" d="M60 66V52"><animate attributeName="stroke-dashoffset" values="1;1;0;0" keyTimes="0;0.4;0.55;1" dur="1.5s" fill="freeze"/></path>
<g transform="translate(60 56)"><g transform="scale(0.001)"><animateTransform attributeName="transform" type="scale" values="0.001;0.001;1.15;1;1" keyTimes="0;0.5;0.654;0.72;1" dur="1.5s" fill="freeze"/><path d="M0 0c-2-6-7-8-11-7c1 5 5 8 11 7z"/></g></g><g transform="translate(60 52)"><g transform="scale(0.001)"><animateTransform attributeName="transform" type="scale" values="0.001;0.001;1.15;1;1" keyTimes="0;0.58;0.734;0.8;1" dur="1.5s" fill="freeze"/><path d="M0 0c2-6 7-8 11-7c-1 5-5 8-11 7z"/></g></g>
</g></svg>