<svg xmlns="http://www.w3.org/2000/svg" viewBox="0 0 120 120" width="120" height="120">
<defs><linearGradient id="g" gradientUnits="userSpaceOnUse" x1="14" y1="46" x2="106" y2="74"><stop offset="0" stop-color="#ec4a10"/><stop offset="0.12" stop-color="#e40f14"/><stop offset="1" stop-color="#45258d"/></linearGradient></defs>
<rect x="25" y="25" width="70" height="70" rx="15" fill="url(#g)" transform="rotate(45 60 60)"/>
<g fill="none" stroke="#fff" stroke-width="2.1" stroke-linecap="round" stroke-linejoin="round" transform="translate(60 60) scale(1) translate(-60 -59)">

<path pathLength="1" stroke-dasharray="1 2" stroke-dashoffset="0" d="M38 36h44v22H38z"></path><path pathLength="1" stroke-dasharray="1 2" stroke-dashoffset="0" d="M44 52l8-6 6 3 10-8"></path>
<g transform="translate(44 68)"><g transform="scale(1)"><path d="M3.4 0a3.4 3.4 0 1 1-6.8 0a3.4 3.4 0 1 1 6.8 0M-6.46 12.24a6.46 6.46 0 0 1 12.92 0"/></g></g><g transform="translate(60 68)"><g transform="scale(1)"><path d="M3.4 0a3.4 3.4 0 1 1-6.8 0a3.4 3.4 0 1 1 6.8 0M-6.46 12.24a6.46 6.46 0 0 1 12.92 0"/></g></g><g transform="translate(76 68)"><g transform="scale(1)"><path d="M3.4 0a3.4 3.4 0 1 1-6.8 0a3.4 3.4 0 1 1 6.8 0M-6.46 12.24a6.46 6.46 0 0 1 12.92 0"/></g></g>
</g></svg>