<svg xmlns="http://www.w3.org/2000/svg" viewBox="27 27 66 66" width="120" height="120">
<defs><linearGradient id="g" gradientUnits="userSpaceOnUse" x1="31" y1="56.7" x2="89" y2="63.300000000000004"><stop offset="0" stop-color="#e40f14"/><stop offset="1" stop-color="#45258d"/></linearGradient></defs>

<g fill="none" stroke="url(#g)" stroke-width="2.3" stroke-linecap="round" stroke-linejoin="round" transform="translate(60 60) scale(1) translate(-60 -60)">

<g><path pathLength="1" stroke-dasharray="1 2" stroke-dashoffset="0" d="M45 40c-4 0-6 3-6 7c2 18 16 32 34 34c4 0 7-2 7-6v-6l-9-4-5 5c-6-3-11-8-14-14l5-5-4-9z"></path></g>
<path pathLength="1" stroke-dasharray="1 2" stroke-dashoffset="0" d="M66 46a8 8 0 0 1 8 8"></path><path pathLength="1" stroke-dasharray="1 2" stroke-dashoffset="0" d="M66 39a15 15 0 0 1 15 15"></path>
</g></svg>